<?xml version="1.0" standalone="no"?>
<!DOCTYPE svg PUBLIC "-//W3C//DTD SVG 20010904//EN"
 "http://www.w3.org/TR/2001/REC-SVG-20010904/DTD/svg10.dtd">
<svg version="1.0" xmlns="http://www.w3.org/2000/svg"
 width="512.000000pt" height="512.000000pt" viewBox="0 0 512.000000 512.000000"
 preserveAspectRatio="xMidYMid meet">
<metadata>
Created by potrace 1.14, written by Peter Selinger 2001-2017
</metadata>
<g transform="translate(0.000000,512.000000) scale(0.100000,-0.100000)"
fill="#000000" stroke="none">
<path d="M1360 4680 c-8 -5 -27 -11 -41 -14 -80 -17 -172 -121 -203 -230 -18
-63 -37 -187 -30 -197 4 -8 81 -31 139 -43 31 -7 31 -6 43 54 27 129 148 182
227 100 23 -24 29 -41 33 -87 4 -64 -10 -98 -101 -244 -26 -41 -60 -111 -75
-154 l-28 -79 -554 -318 c-304 -174 -559 -323 -566 -330 -7 -7 -25 -92 -39
-188 -72 -501 -127 -876 -140 -965 -8 -55 -16 -109 -18 -120 -2 -20 3 -20 241
-17 194 3 242 1 242 -10 0 -7 0 -319 0 -693 0 -374 4 -686 8 -693 7 -10 212
-12 993 -10 l984 3 3 23 3 22 555 0 c547 0 554 0 554 -20 0 -20 7 -20 506 -20
l507 0 -7 728 -8 729 153 6 c84 4 185 7 225 7 40 0 75 3 77 7 3 5 -15 125 -39
268 -24 143 -50 303 -59 355 -8 52 -33 202 -55 334 -22 131 -40 240 -40 241 0
1 -37 24 -82 51 -160 93 -355 208 -513 302 -88 52 -174 103 -191 113 -17 9
-60 35 -96 56 -35 22 -71 42 -78 46 -8 3 -46 26 -85 50 -88 54 -88 60 -6 219
93 180 110 249 92 390 -18 136 -61 228 -132 278 -123 88 -332 77 -447 -25 -72
-63 -132 -219 -132 -343 0 -26 5 -33 28 -38 15 -3 38 -9 52 -14 14 -5 39 -11
56 -15 30 -6 31 -5 43 51 37 164 220 197 260 47 15 -57 -5 -124 -66 -219 -63
-98 -97 -166 -114 -224 -18 -65 -13 -60 -164 -146 -11 -6 -37 -21 -57 -32 -21
-12 -54 -31 -74 -42 -19 -11 -46 -27 -59 -36 -23 -15 -29 -13 -152 54 -244
133 -248 136 -246 163 1 13 31 81 67 150 72 140 96 217 96 305 0 193 -71 343
-183 389 -23 9 -50 21 -59 26 -10 5 -52 9 -94 9 -176 0 -296 -83 -348 -240
-22 -69 -41 -199 -29 -211 13 -13 145 -50 159 -45 6 2 14 24 18 48 8 56 37
103 78 128 94 57 199 -22 185 -141 -6 -49 -16 -70 -97 -199 -54 -85 -100 -193
-100 -233 0 -33 -249 -267 -284 -267 -14 0 -72 27 -128 61 -57 33 -154 91
-216 127 -109 65 -113 68 -108 97 5 36 31 95 85 193 56 101 71 159 71 266 0
140 -32 249 -94 323 -22 27 -66 52 -139 82 -33 13 -185 14 -207 1z"/>
<path d="M5107 543 c-11 -10 -8 -53 3 -53 6 0 10 14 10 30 0 31 -2 35 -13 23z"/>
</g>
</svg>
